<mxfile host="Electron" modified="2023-08-09T17:59:18.201Z" agent="Mozilla/5.0 (Windows NT 10.0; Win64; x64) AppleWebKit/537.36 (KHTML, like Gecko) draw.io/21.6.5 Chrome/114.0.5735.243 Electron/25.3.1 Safari/537.36" etag="OS3k4MADZzwG0wF9lvYC" version="21.6.5" type="device">
  <diagram name="Страница — 1" id="psLl7jnTGUgsdHVbFT2P">
    <mxGraphModel dx="2060" dy="1182" grid="1" gridSize="10" guides="1" tooltips="1" connect="1" arrows="1" fold="1" page="1" pageScale="1" pageWidth="583" pageHeight="827" math="0" shadow="0">
      <root>
        <mxCell id="0" />
        <mxCell id="1" parent="0" />
        <mxCell id="FViThU8lUvuwxzcd67bD-4" value="" style="swimlane;startSize=0;labelBackgroundColor=none;" parent="1" vertex="1">
          <mxGeometry x="80" y="80" width="1560" height="80" as="geometry" />
        </mxCell>
        <mxCell id="FViThU8lUvuwxzcd67bD-5" value="" style="swimlane;startSize=0;labelBackgroundColor=none;" parent="FViThU8lUvuwxzcd67bD-4" vertex="1">
          <mxGeometry x="40" y="20" width="200" height="40" as="geometry">
            <mxRectangle x="40" y="20" width="50" height="40" as="alternateBounds" />
          </mxGeometry>
        </mxCell>
        <mxCell id="FViThU8lUvuwxzcd67bD-6" value="Logo" style="text;html=1;align=center;verticalAlign=middle;resizable=0;points=[];autosize=1;strokeColor=none;fillColor=none;fontSize=20;labelBackgroundColor=none;" parent="FViThU8lUvuwxzcd67bD-5" vertex="1">
          <mxGeometry x="60" width="70" height="40" as="geometry" />
        </mxCell>
        <mxCell id="FViThU8lUvuwxzcd67bD-14" value="" style="swimlane;startSize=0;labelBackgroundColor=none;" parent="FViThU8lUvuwxzcd67bD-4" vertex="1">
          <mxGeometry x="1460" y="20" width="85" height="40" as="geometry" />
        </mxCell>
        <mxCell id="FViThU8lUvuwxzcd67bD-15" value="Register" style="text;html=1;align=center;verticalAlign=middle;resizable=0;points=[];autosize=1;strokeColor=none;fillColor=none;fontSize=18;labelBackgroundColor=none;" parent="FViThU8lUvuwxzcd67bD-14" vertex="1">
          <mxGeometry x="-2.5" width="90" height="40" as="geometry" />
        </mxCell>
        <mxCell id="FViThU8lUvuwxzcd67bD-16" value="" style="swimlane;startSize=0;labelBackgroundColor=none;" parent="FViThU8lUvuwxzcd67bD-4" vertex="1">
          <mxGeometry x="1360" y="20" width="80" height="40" as="geometry" />
        </mxCell>
        <mxCell id="FViThU8lUvuwxzcd67bD-19" value="Login" style="text;html=1;align=center;verticalAlign=middle;resizable=0;points=[];autosize=1;strokeColor=none;fillColor=none;fontSize=18;labelBackgroundColor=none;" parent="FViThU8lUvuwxzcd67bD-16" vertex="1">
          <mxGeometry x="5" width="70" height="40" as="geometry" />
        </mxCell>
        <mxCell id="FViThU8lUvuwxzcd67bD-25" value="" style="swimlane;startSize=0;labelBackgroundColor=none;" parent="FViThU8lUvuwxzcd67bD-4" vertex="1">
          <mxGeometry x="440" y="20" width="120" height="40" as="geometry" />
        </mxCell>
        <mxCell id="FViThU8lUvuwxzcd67bD-26" value="Home" style="text;html=1;align=center;verticalAlign=middle;resizable=0;points=[];autosize=1;strokeColor=none;fillColor=none;fontSize=18;labelBackgroundColor=none;" parent="FViThU8lUvuwxzcd67bD-25" vertex="1">
          <mxGeometry x="25" width="70" height="40" as="geometry" />
        </mxCell>
        <mxCell id="FViThU8lUvuwxzcd67bD-27" value="" style="swimlane;startSize=0;labelBackgroundColor=none;" parent="FViThU8lUvuwxzcd67bD-4" vertex="1">
          <mxGeometry x="580" y="20" width="130" height="40" as="geometry" />
        </mxCell>
        <mxCell id="i47e4DrwkOqDe63r8cLk-1" value="&lt;font style=&quot;font-size: 18px;&quot;&gt;Market Insight&lt;/font&gt;" style="text;html=1;align=center;verticalAlign=middle;resizable=0;points=[];autosize=1;strokeColor=none;fillColor=none;" parent="FViThU8lUvuwxzcd67bD-27" vertex="1">
          <mxGeometry x="-10" width="140" height="40" as="geometry" />
        </mxCell>
        <mxCell id="FViThU8lUvuwxzcd67bD-28" value="" style="swimlane;startSize=0;labelBackgroundColor=none;" parent="FViThU8lUvuwxzcd67bD-4" vertex="1">
          <mxGeometry x="720" y="20" width="120" height="40" as="geometry" />
        </mxCell>
        <mxCell id="i47e4DrwkOqDe63r8cLk-2" value="&lt;font style=&quot;font-size: 18px;&quot;&gt;Statistics&lt;/font&gt;" style="text;html=1;align=center;verticalAlign=middle;resizable=0;points=[];autosize=1;strokeColor=none;fillColor=none;" parent="FViThU8lUvuwxzcd67bD-28" vertex="1">
          <mxGeometry x="10" width="100" height="40" as="geometry" />
        </mxCell>
        <mxCell id="FViThU8lUvuwxzcd67bD-29" value="" style="swimlane;startSize=0;labelBackgroundColor=none;" parent="FViThU8lUvuwxzcd67bD-4" vertex="1">
          <mxGeometry x="860" y="20" width="120" height="40" as="geometry" />
        </mxCell>
        <mxCell id="i47e4DrwkOqDe63r8cLk-3" value="&lt;font style=&quot;font-size: 18px;&quot;&gt;Analytics&lt;/font&gt;" style="text;html=1;align=center;verticalAlign=middle;resizable=0;points=[];autosize=1;strokeColor=none;fillColor=none;" parent="FViThU8lUvuwxzcd67bD-29" vertex="1">
          <mxGeometry x="10" width="100" height="40" as="geometry" />
        </mxCell>
        <mxCell id="FViThU8lUvuwxzcd67bD-30" value="" style="swimlane;startSize=0;labelBackgroundColor=none;" parent="FViThU8lUvuwxzcd67bD-4" vertex="1">
          <mxGeometry x="1000" y="20" width="120" height="40" as="geometry" />
        </mxCell>
        <mxCell id="FViThU8lUvuwxzcd67bD-31" value="Contacts" style="text;html=1;align=center;verticalAlign=middle;resizable=0;points=[];autosize=1;strokeColor=none;fillColor=none;fontSize=18;labelBackgroundColor=none;" parent="FViThU8lUvuwxzcd67bD-30" vertex="1">
          <mxGeometry x="15" width="90" height="40" as="geometry" />
        </mxCell>
        <mxCell id="FViThU8lUvuwxzcd67bD-52" value="" style="swimlane;startSize=0;labelBackgroundColor=none;" parent="FViThU8lUvuwxzcd67bD-4" vertex="1">
          <mxGeometry x="1140" y="20" width="120" height="40" as="geometry" />
        </mxCell>
        <mxCell id="FViThU8lUvuwxzcd67bD-53" value="&lt;font style=&quot;font-size: 18px;&quot;&gt;My Account&lt;/font&gt;" style="text;html=1;align=center;verticalAlign=middle;resizable=0;points=[];autosize=1;strokeColor=none;fillColor=none;labelBackgroundColor=none;" parent="FViThU8lUvuwxzcd67bD-52" vertex="1">
          <mxGeometry x="1" width="120" height="40" as="geometry" />
        </mxCell>
        <mxCell id="FViThU8lUvuwxzcd67bD-10" value="Header" style="text;html=1;align=center;verticalAlign=middle;resizable=0;points=[];autosize=1;strokeColor=none;fillColor=none;fontSize=20;labelBackgroundColor=none;" parent="1" vertex="1">
          <mxGeometry x="815" width="90" height="40" as="geometry" />
        </mxCell>
        <mxCell id="FViThU8lUvuwxzcd67bD-13" value="" style="endArrow=classic;html=1;rounded=0;labelBackgroundColor=none;fontColor=default;" parent="1" edge="1">
          <mxGeometry width="50" height="50" relative="1" as="geometry">
            <mxPoint x="859.5" y="40" as="sourcePoint" />
            <mxPoint x="860" y="80" as="targetPoint" />
          </mxGeometry>
        </mxCell>
        <mxCell id="FViThU8lUvuwxzcd67bD-32" value="" style="swimlane;startSize=0;labelBackgroundColor=none;" parent="1" vertex="1">
          <mxGeometry x="80" y="160" width="1560" height="400" as="geometry" />
        </mxCell>
        <mxCell id="FViThU8lUvuwxzcd67bD-33" value="&lt;font style=&quot;font-size: 20px;&quot;&gt;Main Image&lt;/font&gt;" style="text;html=1;align=center;verticalAlign=middle;resizable=0;points=[];autosize=1;strokeColor=none;fillColor=none;labelBackgroundColor=none;" parent="FViThU8lUvuwxzcd67bD-32" vertex="1">
          <mxGeometry x="715" y="35" width="130" height="40" as="geometry" />
        </mxCell>
        <mxCell id="FViThU8lUvuwxzcd67bD-34" value="&lt;font style=&quot;font-size: 20px;&quot;&gt;Main Header Information&lt;/font&gt;" style="text;html=1;align=center;verticalAlign=middle;resizable=0;points=[];autosize=1;strokeColor=none;fillColor=none;labelBackgroundColor=none;" parent="FViThU8lUvuwxzcd67bD-32" vertex="1">
          <mxGeometry x="660" y="75" width="240" height="40" as="geometry" />
        </mxCell>
        <mxCell id="FViThU8lUvuwxzcd67bD-35" value="" style="swimlane;startSize=0;labelBackgroundColor=none;" parent="FViThU8lUvuwxzcd67bD-32" vertex="1">
          <mxGeometry x="720" y="320" width="120" height="40" as="geometry" />
        </mxCell>
        <mxCell id="FViThU8lUvuwxzcd67bD-36" value="&lt;font style=&quot;font-size: 18px;&quot;&gt;Get Started&lt;/font&gt;" style="text;html=1;align=center;verticalAlign=middle;resizable=0;points=[];autosize=1;strokeColor=none;fillColor=none;labelBackgroundColor=none;" parent="FViThU8lUvuwxzcd67bD-35" vertex="1">
          <mxGeometry width="120" height="40" as="geometry" />
        </mxCell>
        <mxCell id="FViThU8lUvuwxzcd67bD-37" value="" style="swimlane;startSize=0;labelBackgroundColor=none;" parent="1" vertex="1">
          <mxGeometry x="80" y="560" width="1560" height="400" as="geometry" />
        </mxCell>
        <mxCell id="FViThU8lUvuwxzcd67bD-39" value="" style="swimlane;startSize=0;labelBackgroundColor=none;" parent="FViThU8lUvuwxzcd67bD-37" vertex="1">
          <mxGeometry x="40" y="40" width="560" height="320" as="geometry" />
        </mxCell>
        <mxCell id="FViThU8lUvuwxzcd67bD-40" value="&lt;font style=&quot;font-size: 20px;&quot;&gt;Image&lt;/font&gt;" style="text;html=1;align=center;verticalAlign=middle;resizable=0;points=[];autosize=1;strokeColor=none;fillColor=none;labelBackgroundColor=none;" parent="FViThU8lUvuwxzcd67bD-39" vertex="1">
          <mxGeometry x="230" y="160" width="80" height="40" as="geometry" />
        </mxCell>
        <mxCell id="FViThU8lUvuwxzcd67bD-41" value="" style="swimlane;startSize=0;labelBackgroundColor=none;" parent="FViThU8lUvuwxzcd67bD-37" vertex="1">
          <mxGeometry x="760" y="40" width="760" height="320" as="geometry" />
        </mxCell>
        <mxCell id="FViThU8lUvuwxzcd67bD-42" value="&lt;font style=&quot;font-size: 20px;&quot;&gt;Information about our service&lt;/font&gt;" style="text;html=1;align=center;verticalAlign=middle;resizable=0;points=[];autosize=1;strokeColor=none;fillColor=none;labelBackgroundColor=none;" parent="FViThU8lUvuwxzcd67bD-41" vertex="1">
          <mxGeometry x="255" y="120" width="280" height="40" as="geometry" />
        </mxCell>
        <mxCell id="FViThU8lUvuwxzcd67bD-43" value="" style="swimlane;startSize=0;labelBackgroundColor=none;" parent="1" vertex="1">
          <mxGeometry x="80" y="960" width="1560" height="400" as="geometry" />
        </mxCell>
        <mxCell id="FViThU8lUvuwxzcd67bD-44" value="" style="swimlane;startSize=0;labelBackgroundColor=none;" parent="FViThU8lUvuwxzcd67bD-43" vertex="1">
          <mxGeometry x="960" y="40" width="560" height="320" as="geometry" />
        </mxCell>
        <mxCell id="FViThU8lUvuwxzcd67bD-45" value="&lt;font style=&quot;font-size: 20px;&quot;&gt;Image&lt;/font&gt;" style="text;html=1;align=center;verticalAlign=middle;resizable=0;points=[];autosize=1;strokeColor=none;fillColor=none;labelBackgroundColor=none;" parent="FViThU8lUvuwxzcd67bD-44" vertex="1">
          <mxGeometry x="230" y="160" width="80" height="40" as="geometry" />
        </mxCell>
        <mxCell id="FViThU8lUvuwxzcd67bD-46" value="" style="swimlane;startSize=0;labelBackgroundColor=none;" parent="FViThU8lUvuwxzcd67bD-43" vertex="1">
          <mxGeometry x="40" y="40" width="760" height="320" as="geometry" />
        </mxCell>
        <mxCell id="FViThU8lUvuwxzcd67bD-47" value="&lt;font style=&quot;font-size: 20px;&quot;&gt;Information how to work our service&lt;/font&gt;" style="text;html=1;align=center;verticalAlign=middle;resizable=0;points=[];autosize=1;strokeColor=none;fillColor=none;labelBackgroundColor=none;" parent="FViThU8lUvuwxzcd67bD-46" vertex="1">
          <mxGeometry x="200" y="120" width="340" height="40" as="geometry" />
        </mxCell>
        <mxCell id="FViThU8lUvuwxzcd67bD-48" value="" style="swimlane;startSize=0;labelBackgroundColor=none;" parent="1" vertex="1">
          <mxGeometry x="80" y="1360" width="1560" height="120" as="geometry" />
        </mxCell>
        <mxCell id="FViThU8lUvuwxzcd67bD-54" value="" style="swimlane;startSize=0;labelBackgroundColor=none;" parent="FViThU8lUvuwxzcd67bD-48" vertex="1">
          <mxGeometry x="1320" y="40" width="200" height="40" as="geometry">
            <mxRectangle x="40" y="20" width="50" height="40" as="alternateBounds" />
          </mxGeometry>
        </mxCell>
        <mxCell id="FViThU8lUvuwxzcd67bD-55" value="Logo" style="text;html=1;align=center;verticalAlign=middle;resizable=0;points=[];autosize=1;strokeColor=none;fillColor=none;fontSize=20;labelBackgroundColor=none;" parent="FViThU8lUvuwxzcd67bD-54" vertex="1">
          <mxGeometry x="60" width="70" height="40" as="geometry" />
        </mxCell>
        <mxCell id="FViThU8lUvuwxzcd67bD-56" value="" style="swimlane;startSize=0;labelBackgroundColor=none;" parent="FViThU8lUvuwxzcd67bD-48" vertex="1">
          <mxGeometry x="80" y="40" width="120" height="40" as="geometry" />
        </mxCell>
        <mxCell id="FViThU8lUvuwxzcd67bD-57" value="Home" style="text;html=1;align=center;verticalAlign=middle;resizable=0;points=[];autosize=1;strokeColor=none;fillColor=none;fontSize=18;labelBackgroundColor=none;" parent="FViThU8lUvuwxzcd67bD-56" vertex="1">
          <mxGeometry x="25" width="70" height="40" as="geometry" />
        </mxCell>
        <mxCell id="FViThU8lUvuwxzcd67bD-58" value="" style="swimlane;startSize=0;labelBackgroundColor=none;" parent="FViThU8lUvuwxzcd67bD-48" vertex="1">
          <mxGeometry x="220" y="40" width="120" height="40" as="geometry" />
        </mxCell>
        <mxCell id="i47e4DrwkOqDe63r8cLk-5" value="&lt;font style=&quot;font-size: 18px;&quot;&gt;Stocks&lt;/font&gt;" style="text;html=1;align=center;verticalAlign=middle;resizable=0;points=[];autosize=1;strokeColor=none;fillColor=none;" parent="FViThU8lUvuwxzcd67bD-58" vertex="1">
          <mxGeometry x="20" width="80" height="40" as="geometry" />
        </mxCell>
        <mxCell id="FViThU8lUvuwxzcd67bD-59" value="" style="swimlane;startSize=0;labelBackgroundColor=none;" parent="FViThU8lUvuwxzcd67bD-48" vertex="1">
          <mxGeometry x="360" y="40" width="120" height="40" as="geometry" />
        </mxCell>
        <mxCell id="i47e4DrwkOqDe63r8cLk-6" value="&lt;font style=&quot;font-size: 18px;&quot;&gt;Statistics&lt;/font&gt;" style="text;html=1;align=center;verticalAlign=middle;resizable=0;points=[];autosize=1;strokeColor=none;fillColor=none;" parent="FViThU8lUvuwxzcd67bD-59" vertex="1">
          <mxGeometry x="10" width="100" height="40" as="geometry" />
        </mxCell>
        <mxCell id="FViThU8lUvuwxzcd67bD-60" value="" style="swimlane;startSize=0;labelBackgroundColor=none;" parent="FViThU8lUvuwxzcd67bD-48" vertex="1">
          <mxGeometry x="500" y="40" width="120" height="40" as="geometry" />
        </mxCell>
        <mxCell id="i47e4DrwkOqDe63r8cLk-7" value="&lt;font style=&quot;font-size: 18px;&quot;&gt;Analytics&lt;/font&gt;" style="text;html=1;align=center;verticalAlign=middle;resizable=0;points=[];autosize=1;strokeColor=none;fillColor=none;" parent="FViThU8lUvuwxzcd67bD-60" vertex="1">
          <mxGeometry x="10" width="100" height="40" as="geometry" />
        </mxCell>
        <mxCell id="FViThU8lUvuwxzcd67bD-61" value="" style="swimlane;startSize=0;labelBackgroundColor=none;" parent="FViThU8lUvuwxzcd67bD-48" vertex="1">
          <mxGeometry x="640" y="40" width="120" height="40" as="geometry" />
        </mxCell>
        <mxCell id="FViThU8lUvuwxzcd67bD-62" value="Contacts" style="text;html=1;align=center;verticalAlign=middle;resizable=0;points=[];autosize=1;strokeColor=none;fillColor=none;fontSize=18;labelBackgroundColor=none;" parent="FViThU8lUvuwxzcd67bD-61" vertex="1">
          <mxGeometry x="15" width="90" height="40" as="geometry" />
        </mxCell>
        <mxCell id="FViThU8lUvuwxzcd67bD-63" value="" style="swimlane;startSize=0;labelBackgroundColor=none;" parent="FViThU8lUvuwxzcd67bD-48" vertex="1">
          <mxGeometry x="780" y="40" width="120" height="40" as="geometry" />
        </mxCell>
        <mxCell id="FViThU8lUvuwxzcd67bD-64" value="&lt;font style=&quot;font-size: 18px;&quot;&gt;My Account&lt;/font&gt;" style="text;html=1;align=center;verticalAlign=middle;resizable=0;points=[];autosize=1;strokeColor=none;fillColor=none;labelBackgroundColor=none;" parent="FViThU8lUvuwxzcd67bD-63" vertex="1">
          <mxGeometry x="1" width="120" height="40" as="geometry" />
        </mxCell>
        <mxCell id="FViThU8lUvuwxzcd67bD-49" value="&lt;font style=&quot;font-size: 20px;&quot;&gt;Footer&lt;/font&gt;" style="text;html=1;align=center;verticalAlign=middle;resizable=0;points=[];autosize=1;strokeColor=none;fillColor=none;labelBackgroundColor=none;" parent="1" vertex="1">
          <mxGeometry x="840" y="1520" width="80" height="40" as="geometry" />
        </mxCell>
        <mxCell id="FViThU8lUvuwxzcd67bD-50" value="" style="endArrow=classic;html=1;rounded=0;labelBackgroundColor=none;fontColor=default;" parent="1" edge="1">
          <mxGeometry width="50" height="50" relative="1" as="geometry">
            <mxPoint x="880" y="1530" as="sourcePoint" />
            <mxPoint x="879.5" y="1490" as="targetPoint" />
          </mxGeometry>
        </mxCell>
      </root>
    </mxGraphModel>
  </diagram>
</mxfile>
